<?xml version="1.0" encoding="UTF-8"?><svg id="a" xmlns="http://www.w3.org/2000/svg" viewBox="0 0 1000.46 998.83"><defs><style>.b{stroke-width:64.53px;}.b,.c{fill:none;stroke:#0091ad;stroke-miterlimit:10;}.d{fill:#0091ad;}.c{stroke-width:70.78px;}</style></defs><g><path class="d" d="M798.69,403.57c49.34,0,94.62-17.77,129.71-47.31,44.02-37.04,72.06-92.51,72.06-154.45,0-26.09-4.98-51.02-14.02-73.93-1.19-3.03-2.49-6.05-3.83-9.04-1.34-2.99-2.76-5.9-4.25-8.81-4.48-8.7-9.54-17.05-15.17-24.94-2.8-3.98-5.78-7.81-8.85-11.57-3.1-3.72-6.32-7.35-9.65-10.88C907.91,24.06,856.04,0,798.69,0c-61.9,0-117.37,28-154.42,72.06-29.57,35.09-47.39,80.37-47.39,129.75v201.76h201.8Zm-129.75-201.76c0-71.48,58.27-129.75,129.75-129.75s129.71,58.27,129.71,129.75-58.23,129.71-129.71,129.71h-129.75V201.8Z"/><circle class="d" cx="412.5" cy="513.09" r="43.56"/></g><g><path class="c" d="M35.39,403.57v302.46c0,141.86,118.34,257.42,263.63,257.42s263.62-115.56,263.62-257.42V403.57"/><path class="b" d="M544.3,771.04c-13.97,2.45-58.93,8.5-106.53-16.69-42.94-22.72-63.16-57.71-69.94-70.86"/></g></svg>